<svg version="1.1" id="Layer_1" xmlns="http://www.w3.org/2000/svg" xmlns:xlink="http://www.w3.org/1999/xlink" x="0px" y="0px"
	 width="100%" viewBox="0 0 512 512" enable-background="new 0 0 512 512" xml:space="preserve">
<path fill="transparent" opacity="1.000000" stroke="none" 
	d="
M1.000000,140.000000 
	C1.000000,93.692322 1.000000,47.384640 1.000000,1.038480 
	C171.546524,1.038480 342.093048,1.038480 513.000000,1.038480 
	C513.000000,47.020267 513.000000,93.041473 512.693970,139.335358 
	C508.928711,127.467064 501.882721,117.964928 490.107819,113.282043 
	C483.671722,110.722397 476.377594,109.271538 469.446716,109.183540 
	C436.787201,108.768867 404.119476,108.998695 371.454681,108.998611 
	C369.507629,108.998604 367.560608,108.998611 365.001465,108.998611 
	C365.001465,106.581276 365.001526,104.798439 365.001495,103.015602 
	C365.001282,92.349541 365.161530,81.679802 364.916656,71.019356 
	C364.826965,67.113449 364.231476,63.089920 363.084991,59.360336 
	C358.585510,44.722946 345.860535,36.118938 328.882141,36.055458 
	C284.218658,35.888477 239.554047,35.960373 194.890076,36.043556 
	C188.773727,36.054947 182.633881,36.433380 176.547821,37.059090 
	C163.724899,38.377430 150.961792,50.718483 150.109818,63.404736 
	C149.231537,76.483261 149.322479,89.627121 149.005035,102.742783 
	C148.958405,104.669815 148.998566,106.598953 148.998566,108.998665 
	C146.086975,108.998665 143.952515,108.981461 141.818405,109.001228 
	C106.203682,109.331116 70.586754,109.527374 34.976032,110.105103 
	C26.978941,110.234848 20.207893,114.275955 14.072662,119.364876 
	C7.444851,124.862358 4.214414,132.399902 1.000000,140.000000 
z"/>
<path fill="#000000" opacity="1.000000" stroke="none" 
	d="
M1.000000,140.468658 
	C4.214414,132.399902 7.444851,124.862358 14.072662,119.364876 
	C20.207893,114.275955 26.978941,110.234848 34.976032,110.105103 
	C70.586754,109.527374 106.203682,109.331116 141.818405,109.001228 
	C143.952515,108.981461 146.086975,108.998665 148.998566,108.998665 
	C148.998566,106.598953 148.958405,104.669815 149.005035,102.742783 
	C149.322479,89.627121 149.231537,76.483261 150.109818,63.404736 
	C150.961792,50.718483 163.724899,38.377430 176.547821,37.059090 
	C182.633881,36.433380 188.773727,36.054947 194.890076,36.043556 
	C239.554047,35.960373 284.218658,35.888477 328.882141,36.055458 
	C345.860535,36.118938 358.585510,44.722946 363.084991,59.360336 
	C364.231476,63.089920 364.826965,67.113449 364.916656,71.019356 
	C365.161530,81.679802 365.001282,92.349541 365.001495,103.015602 
	C365.001526,104.798439 365.001465,106.581276 365.001465,108.998611 
	C367.560608,108.998611 369.507629,108.998604 371.454681,108.998611 
	C404.119476,108.998695 436.787201,108.768867 469.446716,109.183540 
	C476.377594,109.271538 483.671722,110.722397 490.107819,113.282043 
	C501.882721,117.964928 508.928711,127.467064 512.693970,139.804016 
	C513.000000,242.020889 513.000000,344.041779 512.693970,446.727325 
	C508.839172,459.441986 502.009369,469.078491 490.148773,473.725372 
	C483.840668,476.196869 476.745117,477.781799 469.993713,477.821106 
	C415.013763,478.141174 360.031128,478.001190 305.049316,478.001190 
	C217.911453,478.001190 130.773544,478.049744 43.635807,477.951874 
	C29.619314,477.936127 17.185436,473.441650 8.552750,461.829834 
	C5.289758,457.440704 3.474944,451.974976 1.000000,447.000000 
	C1.000000,344.979095 1.000000,242.958206 1.000000,140.468658 
M11.517312,228.086151 
	C2.571675,233.749588 2.540792,236.687973 11.375458,241.715134 
	C11.659138,241.876556 11.953359,242.019440 12.220260,243.085999 
	C12.211488,265.415070 12.197124,287.744110 12.195150,310.073181 
	C12.191453,351.898743 12.144038,393.724426 12.219070,435.549866 
	C12.251635,453.702148 23.929697,465.910461 41.510384,465.917969 
	C185.150345,465.979370 328.790405,465.982880 472.430206,465.817810 
	C477.092102,465.812439 482.131104,464.604889 486.339691,462.590240 
	C497.885529,457.063293 501.817139,446.864258 501.817169,434.643097 
	C501.817322,370.822205 501.855286,307.001343 502.254211,242.580231 
	C504.174133,241.039581 506.255249,239.653702 507.945862,237.892914 
	C508.789093,237.014679 509.653687,234.730270 509.248047,234.315918 
	C506.963440,231.982147 504.295685,230.023438 501.841522,227.010849 
	C501.860931,201.527588 502.011169,176.043533 501.854462,150.561356 
	C501.747040,133.096848 489.837769,121.057632 472.755432,121.052216 
	C328.940552,121.006622 185.125671,121.008286 41.310795,121.050186 
	C24.570200,121.055069 12.410146,132.686890 12.214463,149.487091 
	C11.909939,175.632065 12.188598,201.783859 11.517312,228.086151 
M334.167725,75.616127 
	C334.168549,86.102119 334.259521,96.589355 334.114014,107.073318 
	C334.071716,110.122421 335.116028,111.272667 338.135712,111.149536 
	C341.956451,110.993752 345.797180,110.959862 349.613159,111.168480 
	C353.007324,111.354042 354.330536,110.204063 354.281097,106.647827 
	C354.112030,94.491707 354.347687,82.329971 354.179138,70.173836 
	C353.983246,56.045689 344.613190,46.988003 330.354706,46.980083 
	C281.387726,46.952885 232.420761,46.949772 183.453827,46.982521 
	C169.299484,46.991989 160.024658,56.162102 159.808365,70.360847 
	C159.676453,79.019684 159.779343,87.682121 159.778824,96.342941 
	C159.777893,111.424515 159.777710,111.302414 175.054565,111.195564 
	C178.757156,111.169662 179.990906,110.117767 179.919113,106.383018 
	C179.714447,95.734917 179.835556,85.080299 179.851639,74.428284 
	C179.862869,66.993935 179.879898,66.981682 187.414459,66.980591 
	C233.713089,66.973846 280.011719,66.972092 326.310333,66.971352 
	C334.112488,66.971230 334.112488,66.977226 334.167725,75.616127 
M228.500000,77.001312 
	C215.768875,77.001312 203.037766,77.001312 190.442383,77.001312 
	C190.442383,88.176506 190.442383,98.404686 190.442383,108.616089 
	C235.090805,108.616089 279.297058,108.616089 323.646118,108.616089 
	C323.646118,98.005974 323.646118,87.780838 323.646118,77.001320 
	C292.031158,77.001320 260.765564,77.001320 228.500000,77.001312 
z"/>
<path fill="transparent" opacity="1.000000" stroke="none" 
	d="
M1.000000,447.468658 
	C3.474944,451.974976 5.289758,457.440704 8.552750,461.829834 
	C17.185436,473.441650 29.619314,477.936127 43.635807,477.951874 
	C130.773544,478.049744 217.911453,478.001190 305.049316,478.001190 
	C360.031128,478.001190 415.013763,478.141174 469.993713,477.821106 
	C476.745117,477.781799 483.840668,476.196869 490.148773,473.725372 
	C502.009369,469.078491 508.839172,459.441986 512.693970,447.195984 
	C513.000000,468.985046 513.000000,490.970093 513.000000,512.950928 
	C342.333313,512.946655 171.666656,512.946655 1.000000,512.946655 
	C1.000000,491.241302 1.000000,469.589325 1.000000,447.468658 
z"/>
<path fill="#774B35" opacity="1.000000" stroke="none" 
	d="
M501.880096,243.180450 
	C501.855286,307.001343 501.817322,370.822205 501.817169,434.643097 
	C501.817139,446.864258 497.885529,457.063293 486.339691,462.590240 
	C482.131104,464.604889 477.092102,465.812439 472.430206,465.817810 
	C328.790405,465.982880 185.150345,465.979370 41.510384,465.917969 
	C23.929697,465.910461 12.251635,453.702148 12.219070,435.549866 
	C12.144038,393.724426 12.191453,351.898743 12.195150,310.073181 
	C12.197124,287.744110 12.211488,265.415070 12.493155,242.809631 
	C17.116007,245.295670 21.397322,248.173721 25.826469,250.802704 
	C73.682541,279.208374 124.409622,301.015198 177.905670,316.266663 
	C193.697693,320.768921 209.790009,324.217865 225.912903,328.584351 
	C226.334061,336.157471 226.281342,343.322815 226.911819,350.427521 
	C227.852203,361.024384 235.159485,368.205688 245.693726,369.025269 
	C251.656540,369.489197 257.671722,369.530792 263.656494,369.413727 
	C279.742737,369.099152 287.294861,361.261993 287.488739,345.146729 
	C287.556488,339.513733 287.928223,333.884399 288.570007,328.228516 
	C307.658875,323.422638 326.559601,319.362732 344.977112,313.724365 
	C398.503418,297.337769 449.517303,275.194153 496.951843,245.196198 
	C498.428833,244.262161 500.230042,243.840820 501.880096,243.180450 
z"/>
<path fill="#955F44" opacity="1.000000" stroke="none" 
	d="
M12.220089,227.932755 
	C12.188598,201.783859 11.909939,175.632065 12.214463,149.487091 
	C12.410146,132.686890 24.570200,121.055069 41.310795,121.050186 
	C185.125671,121.008286 328.940552,121.006622 472.755432,121.052216 
	C489.837769,121.057632 501.747040,133.096848 501.854462,150.561356 
	C502.011169,176.043533 501.860931,201.527588 501.503082,227.621429 
	C491.566040,234.187241 482.098572,240.367142 472.346222,246.058914 
	C429.367706,271.142578 383.705200,290.010223 336.034088,304.040985 
	C320.113129,308.726929 303.952393,312.598358 287.759583,316.327881 
	C287.476654,309.509308 287.492950,303.196655 287.159821,296.902466 
	C286.550812,285.394623 278.431976,277.417145 266.945923,277.055298 
	C260.464569,276.851135 253.968689,276.876068 247.484863,277.030121 
	C235.524063,277.314331 227.368057,285.413910 226.794632,297.482269 
	C226.488205,303.931274 226.344101,310.388000 225.736359,316.667664 
	C189.754150,308.443939 154.928711,297.903839 120.991371,284.457825 
	C82.803070,269.327576 46.502823,250.573715 12.220089,227.932755 
z"/>
<path fill="#764A35" opacity="1.000000" stroke="none" 
	d="
M334.164307,75.133850 
	C334.112488,66.977226 334.112488,66.971230 326.310333,66.971352 
	C280.011719,66.972092 233.713089,66.973846 187.414459,66.980591 
	C179.879898,66.981682 179.862869,66.993935 179.851639,74.428284 
	C179.835556,85.080299 179.714447,95.734917 179.919113,106.383018 
	C179.990906,110.117767 178.757156,111.169662 175.054565,111.195564 
	C159.777710,111.302414 159.777893,111.424515 159.778824,96.342941 
	C159.779343,87.682121 159.676453,79.019684 159.808365,70.360847 
	C160.024658,56.162102 169.299484,46.991989 183.453827,46.982521 
	C232.420761,46.949772 281.387726,46.952885 330.354706,46.980083 
	C344.613190,46.988003 353.983246,56.045689 354.179138,70.173836 
	C354.347687,82.329971 354.112030,94.491707 354.281097,106.647827 
	C354.330536,110.204063 353.007324,111.354042 349.613159,111.168480 
	C345.797180,110.959862 341.956451,110.993752 338.135712,111.149536 
	C335.116028,111.272667 334.071716,110.122421 334.114014,107.073318 
	C334.259521,96.589355 334.168549,86.102119 334.164307,75.133850 
z"/>
<path fill="transparent" opacity="1.000000" stroke="none" 
	d="
M229.000000,77.001312 
	C260.765564,77.001320 292.031158,77.001320 323.646118,77.001320 
	C323.646118,87.780838 323.646118,98.005974 323.646118,108.616089 
	C279.297058,108.616089 235.090805,108.616089 190.442383,108.616089 
	C190.442383,98.404686 190.442383,88.176506 190.442383,77.001312 
	C203.037766,77.001312 215.768875,77.001312 229.000000,77.001312 
z"/>
<path fill="#06050C" opacity="1.000000" stroke="none" 
	d="
M287.901276,316.842102 
	C303.952393,312.598358 320.113129,308.726929 336.034088,304.040985 
	C383.705200,290.010223 429.367706,271.142578 472.346222,246.058914 
	C482.098572,240.367142 491.566040,234.187241 501.461609,228.084412 
	C504.295685,230.023438 506.963440,231.982147 509.248047,234.315918 
	C509.653687,234.730270 508.789093,237.014679 507.945862,237.892914 
	C506.255249,239.653702 504.174133,241.039581 502.067139,242.880341 
	C500.230042,243.840820 498.428833,244.262161 496.951843,245.196198 
	C449.517303,275.194153 398.503418,297.337769 344.977112,313.724365 
	C326.559601,319.362732 307.658875,323.422638 288.397034,327.847321 
	C287.843903,323.941376 287.872589,320.391754 287.901276,316.842102 
z"/>
<path fill="#06050C" opacity="1.000000" stroke="none" 
	d="
M11.868700,228.009460 
	C46.502823,250.573715 82.803070,269.327576 120.991371,284.457825 
	C154.928711,297.903839 189.754150,308.443939 225.831085,317.006348 
	C226.125717,321.062225 225.935226,324.605835 225.744720,328.149475 
	C209.790009,324.217865 193.697693,320.768921 177.905670,316.266663 
	C124.409622,301.015198 73.682541,279.208374 25.826469,250.802704 
	C21.397322,248.173721 17.116007,245.295670 12.504359,242.352112 
	C11.953359,242.019440 11.659138,241.876556 11.375458,241.715134 
	C2.540792,236.687973 2.571675,233.749588 11.868700,228.009460 
z"/>
<path fill="#030201" opacity="1.000000" stroke="none" 
	d="
M225.912903,328.584351 
	C225.935226,324.605835 226.125717,321.062225 226.221466,317.179932 
	C226.344101,310.388000 226.488205,303.931274 226.794632,297.482269 
	C227.368057,285.413910 235.524063,277.314331 247.484863,277.030121 
	C253.968689,276.876068 260.464569,276.851135 266.945923,277.055298 
	C278.431976,277.417145 286.550812,285.394623 287.159821,296.902466 
	C287.492950,303.196655 287.476654,309.509308 287.759583,316.327881 
	C287.872589,320.391754 287.843903,323.941376 287.988159,327.872192 
	C287.928223,333.884399 287.556488,339.513733 287.488739,345.146729 
	C287.294861,361.261993 279.742737,369.099152 263.656494,369.413727 
	C257.671722,369.530792 251.656540,369.489197 245.693726,369.025269 
	C235.159485,368.205688 227.852203,361.024384 226.911819,350.427521 
	C226.281342,343.322815 226.334061,336.157471 225.912903,328.584351 
M278.548553,343.274292 
	C278.548126,328.804077 278.631287,314.333191 278.517761,299.863861 
	C278.442688,290.298065 273.966370,285.991364 264.380127,285.905243 
	C259.390778,285.860413 254.400223,285.851990 249.411102,285.907379 
	C240.067581,286.011139 235.627975,290.260834 235.487732,299.568726 
	C235.337402,309.545929 235.407867,319.527374 235.466812,329.506470 
	C235.507050,336.316223 235.377075,343.149841 235.907486,349.927032 
	C236.382431,355.995483 240.205872,359.753510 246.201019,360.057648 
	C253.471893,360.426514 260.793823,360.421417 268.061859,360.012756 
	C273.815521,359.689178 277.277374,355.927307 278.128052,350.160370 
	C278.417450,348.198578 278.416656,346.194000 278.548553,343.274292 
z"/>
<path fill="#F8B334" opacity="1.000000" stroke="none" 
	d="
M278.548523,343.741638 
	C278.416656,346.194000 278.417450,348.198578 278.128052,350.160370 
	C277.277374,355.927307 273.815521,359.689178 268.061859,360.012756 
	C260.793823,360.421417 253.471893,360.426514 246.201019,360.057648 
	C240.205872,359.753510 236.382431,355.995483 235.907486,349.927032 
	C235.377075,343.149841 235.507050,336.316223 235.466812,329.506470 
	C235.407867,319.527374 235.337402,309.545929 235.487732,299.568726 
	C235.627975,290.260834 240.067581,286.011139 249.411102,285.907379 
	C254.400223,285.851990 259.390778,285.860413 264.380127,285.905243 
	C273.966370,285.991364 278.442688,290.298065 278.517761,299.863861 
	C278.631287,314.333191 278.548126,328.804077 278.548523,343.741638 
z"/>
</svg>